<svg width="57" height="58" viewBox="0 0 57 58" fill="none" xmlns="http://www.w3.org/2000/svg">
<path d="M16.4626 30.5593L24.2862 22.2027" stroke="#3868B0" stroke-width="2" stroke-linecap="round"/>
<path d="M32.7676 30.5593L24.2864 22.2027" stroke="#3868B0" stroke-width="2" stroke-linecap="round"/>
<path d="M36.4939 30.7874L24.2861 18.5796" stroke="#3868B0" stroke-width="2" stroke-linecap="round"/>
<path d="M12.5063 31.1812L24.2076 18.5796" stroke="#3868B0" stroke-width="2" stroke-linecap="round"/>
<path d="M16.4626 39.741V30.7734" stroke="#3868B0" stroke-width="2" stroke-linecap="round"/>
<path d="M32.7676 39.741V30.7734" stroke="#3868B0" stroke-width="2" stroke-linecap="round"/>
<path d="M26.2458 39.741H32.7677" stroke="#3868B0" stroke-width="2" stroke-linecap="round"/>
<path d="M26.2458 39.741V33.2191" stroke="#3868B0" stroke-width="2" stroke-linecap="round"/>
<path d="M16.4626 39.741H22.1693" stroke="#3868B0" stroke-width="2" stroke-linecap="round"/>
<path d="M22.1692 33.2192L22.1692 39.7411" stroke="#3868B0" stroke-width="2" stroke-linecap="round"/>
<path d="M22.1692 33.2192H26.2453" stroke="#3868B0" stroke-width="2" stroke-linecap="round"/>
<circle cx="28.5" cy="29.1602" r="27.5" stroke="#3868B0" stroke-width="2"/>
<path d="M37.0266 14.6649C37.2709 15.1427 37.5846 15.8109 38.7006 16.0292C37.5846 16.0292 36.7476 16.0292 36.1897 15.2106C35.9665 14.7741 35.4457 14.7559 35.0737 14.6649V13.5735C35.4457 13.5735 36.4687 13.5735 37.0266 14.6649Z" fill="#3868B0"/>
<path fill-rule="evenodd" clip-rule="evenodd" d="M35.0737 13.5735L35.0737 19.8493H34.5157V13.5735H35.0737Z" fill="#3868B0"/>
<path d="M35.0088 19.3977C35.269 19.9018 34.823 20.6348 34.0126 21.0349C33.2022 21.4349 32.3344 21.3506 32.0742 20.8465C31.814 20.3424 32.26 19.6094 33.0704 19.2093C33.8808 18.8093 34.7487 18.8936 35.0088 19.3977Z" fill="#3868B0"/>
<path d="M40.6006 23.2402C40.8733 23.7342 40.4571 24.4712 39.6709 24.8863C38.8847 25.3014 38.0262 25.2374 37.7535 24.7433C37.4808 24.2493 37.8971 23.5123 38.6833 23.0972C39.4695 22.6821 40.3279 22.7461 40.6006 23.2402Z" fill="#3868B0"/>
<path d="M45.3159 20.4693C45.5886 20.9634 45.1723 21.7004 44.3861 22.1155C43.5999 22.5306 42.7415 22.4665 42.4688 21.9725C42.1961 21.4784 42.6123 20.7414 43.3985 20.3263C44.1847 19.9112 45.0431 19.9752 45.3159 20.4693Z" fill="#3868B0"/>
<path fill-rule="evenodd" clip-rule="evenodd" d="M40.6783 16.7146V23.6755H40.1145L40.1145 16.7146H40.6783Z" fill="#3868B0"/>
<path fill-rule="evenodd" clip-rule="evenodd" d="M45.3955 13.9085V20.8694H44.8317L44.8317 13.9085L45.3955 13.9085Z" fill="#3868B0"/>
<path fill-rule="evenodd" clip-rule="evenodd" d="M40.1226 16.7146L44.8409 13.9085L45.1339 14.3797L40.4155 17.1857L40.1226 16.7146Z" fill="#3868B0"/>
<path d="M45.3141 13.7148V14.2133H44.4897L45.3141 13.7148Z" fill="#3868B0"/>
<path fill-rule="evenodd" clip-rule="evenodd" d="M45.3946 13.5735V14.2921H44.2063L45.3946 13.5735ZM44.7732 14.1346H45.2335V13.8561L44.7732 14.1346Z" fill="#3868B0"/>
<path fill-rule="evenodd" clip-rule="evenodd" d="M40.1226 18.1424L44.8409 15.3363L45.1339 15.8075L40.4155 18.6136L40.1226 18.1424Z" fill="#3868B0"/>
<path d="M45.3141 15.1427V15.6412H44.4897L45.3141 15.1427Z" fill="#3868B0"/>
<path fill-rule="evenodd" clip-rule="evenodd" d="M45.3946 15.0013V15.7199H44.2063L45.3946 15.0013ZM44.7732 15.5624H45.2335V15.284L44.7732 15.5624Z" fill="#3868B0"/>
</svg>
