<svg xmlns="http://www.w3.org/2000/svg" width="45.2" height="56.2" viewBox="0 0 45.2 56.2"><g id="Layer_2" data-name="Layer 2"><g id="Layer_1-2" data-name="Layer 1"><g id="new_black_keys" data-name="new black keys"><rect x="13.1" y="7.8" width="16.7" height="2.4"/><rect x="13.1" y="15.9" width="16.7" height="2.4"/><rect x="13.1" y="31.5" width="7.5" height="2.4"/><rect x="13.1" y="39.4" width="5.3" height="2.4"/><rect x="13.1" y="47.4" width="5.8" height="2.4"/></g><g id="ney_keys" data-name="ney keys"><rect x="13.6" y="14.7" width="16.2" height="3.6" fill="none" stroke="#000" stroke-miterlimit="10"/><rect x="13.6" y="30.3" width="7" height="3.6" fill="none" stroke="#000" stroke-miterlimit="10"/><rect x="13.6" y="38.3" width="4.8" height="3.6" fill="none" stroke="#000" stroke-miterlimit="10"/><rect x="13.6" y="46.2" width="5.3" height="3.6" fill="none" stroke="#000" stroke-miterlimit="10"/><rect x="13.6" y="6.7" width="16.2" height="3.6" fill="none" stroke="#000" stroke-miterlimit="10"/></g><g id="new_key_lines" data-name="new key lines"><line x1="29.8" y1="8.5" x2="9.3" y2="8.5" fill="none" stroke="#000" stroke-miterlimit="10"/><line x1="29.8" y1="16.4" x2="3.6" y2="16.4" fill="none" stroke="#000" stroke-miterlimit="10"/><line x1="32.5" y1="24.2" x2="1.4" y2="24.2" fill="none" stroke="#000" stroke-miterlimit="10"/><line x1="20.6" y1="32" x2="1.3" y2="32" fill="none" stroke="#000" stroke-miterlimit="10"/><line x1="18.4" y1="39.8" x2="3.7" y2="39.8" fill="none" stroke="#000" stroke-miterlimit="10"/><line x1="18.9" y1="47.6" x2="9.3" y2="47.6" fill="none" stroke="#000" stroke-miterlimit="10"/></g><g id="new_clef" data-name="new clef"><path d="M35.5,55.2c-.3-.4-.3-.4-.8-.3a15.19,15.19,0,0,1-3,.3c-10.8,0-16-7.3-16-14.9,0-4.7,1.9-8.8,4.9-12.6a58.59,58.59,0,0,1,8.1-7.8c.5-.4.5-.5.4-1.1a56.07,56.07,0,0,1-.7-7.2A23.65,23.65,0,0,1,30.6,1.1c.1-.3,9.1,1.1,9.4,1.6a36.49,36.49,0,0,1,.8,5.6A21.55,21.55,0,0,1,35,22.5c-.8.9-1.8,1.8-2.5,2.5-.3.3-.3.3-.3.8l1.1,6.4c.2,1,0,.8,1.3.8A10.45,10.45,0,0,1,45.2,43.1v.4a11.39,11.39,0,0,1-7.3,10.9M23.3,33c-3.7,4.1-4.1,7.6-4.1,10.2,0,6.1,5,10.4,12.7,10.4a23.39,23.39,0,0,0,2.5-.2c.7-.1.7-.1.6-.6L32.8,39.7c-.1-.5-.2-.5-.9-.3-2.7.8-4.4,2.6-4.4,5.2a5.08,5.08,0,0,0,3.2,4.7c.3.1.7.3.7.6a.48.48,0,0,1-.44.5H30.8a2.63,2.63,0,0,1-1.2-.3c-3-1-5.1-3.8-5.1-7.8a9.08,9.08,0,0,1,6.4-8.5c.8-.3.8-.2.7-1l-.9-5.6c-.1-.5-.2-.5-.6-.2A42.23,42.23,0,0,0,23.3,33Zm7.2-19.3a24.32,24.32,0,0,0,.3,4c.1.6.3.6.6.3,1-.9,2.1-1.9,2.8-2.6,3.4-3.4,4.9-6.2,4.9-9.3,0-2.4-1.2-3.6-2.6-3.6C33.7,2.6,30.5,6.8,30.5,13.7Zm4.1,25.9,2.2,12.6c.1.5.2.5.7.3a6.77,6.77,0,0,0,4.1-6.2,7.27,7.27,0,0,0-6.5-7.2C34.6,38.9,34.5,39.1,34.6,39.6Z"/></g><g id="circle"><path d="M28.1,56.2A28.1,28.1,0,0,1,28.1,0c2,0,9.3,0,12,2.6l-6.3-.7a35.2,35.2,0,0,0-5.7-.5,26.75,26.75,0,0,0,.1,53.5,28.38,28.38,0,0,0,7.1-.9l.3,1.3A31.66,31.66,0,0,1,28.1,56.2Z"/></g></g></g></svg>