<svg width="59" height="59" viewBox="0 0 59 59" fill="none" xmlns="http://www.w3.org/2000/svg">
<path d="M16.9715 36.5571C16.6954 36.5568 16.4713 36.7804 16.4709 37.0566C16.4706 37.3327 16.6942 37.5568 16.9704 37.5571L16.9715 36.5571ZM16.9704 37.5571L37.3221 37.5801L37.3232 36.5801L16.9715 36.5571L16.9704 37.5571Z" fill="#3868B0"/>
<path d="M15.6772 41.101L37.3225 41.101V35.379C37.3225 33.4718 36.3988 31.3962 33.284 31.3962H32.4823C32.4823 31.3962 29.3057 31.3962 29.3057 27.036V23.9352C29.3057 16.0178 15.6772 15.7569 15.6772 23.9352V41.101Z" stroke="#3868B0" stroke-width="2"/>
<path d="M38.5266 15.0048C38.7709 15.4826 39.0846 16.1508 40.2006 16.3691C39.0846 16.3691 38.2476 16.3691 37.6897 15.5505C37.4665 15.1139 36.9457 15.0957 36.5737 15.0048V13.9133C36.9457 13.9133 37.9687 13.9133 38.5266 15.0048Z" fill="#3868B0"/>
<path fill-rule="evenodd" clip-rule="evenodd" d="M36.5737 13.9133L36.5737 20.1891H36.0157V13.9133H36.5737Z" fill="#3868B0"/>
<path d="M36.5088 19.7376C36.769 20.2417 36.323 20.9746 35.5126 21.3747C34.7022 21.7748 33.8344 21.6905 33.5742 21.1864C33.314 20.6822 33.76 19.9493 34.5704 19.5492C35.3808 19.1491 36.2487 19.2335 36.5088 19.7376Z" fill="#3868B0"/>
<path d="M42.1004 23.58C42.3731 24.0741 41.9568 24.8111 41.1706 25.2262C40.3844 25.6413 39.526 25.5773 39.2533 25.0832C38.9806 24.5891 39.3969 23.8521 40.1831 23.437C40.9693 23.0219 41.8277 23.0859 42.1004 23.58Z" fill="#3868B0"/>
<path d="M46.8156 20.8091C47.0883 21.3032 46.672 22.0402 45.8858 22.4553C45.0996 22.8704 44.2412 22.8064 43.9685 22.3123C43.6958 21.8183 44.1121 21.0812 44.8983 20.6661C45.6845 20.251 46.5429 20.3151 46.8156 20.8091Z" fill="#3868B0"/>
<path fill-rule="evenodd" clip-rule="evenodd" d="M42.178 17.0544V24.0153H41.6142L41.6142 17.0544H42.178Z" fill="#3868B0"/>
<path fill-rule="evenodd" clip-rule="evenodd" d="M46.8952 14.2483V21.2092H46.3314L46.3314 14.2483L46.8952 14.2483Z" fill="#3868B0"/>
<path fill-rule="evenodd" clip-rule="evenodd" d="M41.6223 17.0544L46.3407 14.2483L46.6336 14.7195L41.9153 17.5256L41.6223 17.0544Z" fill="#3868B0"/>
<path d="M46.8138 14.0547V14.5532H45.9895L46.8138 14.0547Z" fill="#3868B0"/>
<path fill-rule="evenodd" clip-rule="evenodd" d="M46.8944 13.9133V14.632H45.7061L46.8944 13.9133ZM46.2729 14.4744H46.7333V14.196L46.2729 14.4744Z" fill="#3868B0"/>
<path fill-rule="evenodd" clip-rule="evenodd" d="M41.6223 18.4822L46.3407 15.6762L46.6336 16.1473L41.9153 18.9534L41.6223 18.4822Z" fill="#3868B0"/>
<path d="M46.8138 15.4825V15.981H45.9895L46.8138 15.4825Z" fill="#3868B0"/>
<path fill-rule="evenodd" clip-rule="evenodd" d="M46.8944 15.3412V16.0598H45.7061L46.8944 15.3412ZM46.2729 15.9022H46.7333V15.6238L46.2729 15.9022Z" fill="#3868B0"/>
<circle cx="29.5" cy="29.5" r="27.8398" stroke="#3868B0" stroke-width="2"/>
</svg>
