<svg width="58" height="58" viewBox="0 0 58 58" fill="none" xmlns="http://www.w3.org/2000/svg">
<path d="M16.5088 18.874L12.7427 44.2368" stroke="#3868B0" stroke-width="2" stroke-linecap="round"/>
<path d="M26.3196 18.6929L30.0856 44.0556" stroke="#3868B0" stroke-width="2" stroke-linecap="round"/>
<path d="M21.4132 44.2369L21.4149 18.8742" stroke="#3868B0" stroke-width="2" stroke-linecap="round"/>
<rect x="11.4587" y="22.8118" width="19.9106" height="13.9232" fill="white" stroke="#3868B0"/>
<path d="M16.1298 22.3118H26.6983" stroke="#3868B0" stroke-width="3" stroke-linecap="round"/>
<path d="M12.7426 37.235L30.0856 37.235" stroke="#3868B0" stroke-width="3" stroke-linecap="round"/>
<path d="M18.6837 27.4129V28.2169H17.4537V31.7839H16.4397V28.2169H15.2097V27.4129H18.6837ZM18.621 31.7839V28.6729H19.173C19.219 28.6729 19.257 28.6769 19.287 28.6849C19.319 28.6929 19.345 28.7059 19.365 28.7239C19.387 28.7399 19.403 28.7619 19.413 28.7899C19.425 28.8179 19.435 28.8519 19.443 28.8919L19.494 29.1829C19.608 29.0069 19.736 28.8679 19.878 28.7659C20.02 28.6639 20.175 28.6129 20.343 28.6129C20.485 28.6129 20.599 28.6469 20.685 28.7149L20.565 29.3989C20.557 29.4409 20.541 29.4709 20.517 29.4889C20.493 29.5049 20.461 29.5129 20.421 29.5129C20.387 29.5129 20.347 29.5089 20.301 29.5009C20.255 29.4909 20.197 29.4859 20.127 29.4859C19.883 29.4859 19.691 29.6159 19.551 29.8759V31.7839H18.621ZM22.0595 28.6729V31.7839H21.1295V28.6729H22.0595ZM22.1675 27.8209C22.1675 27.8949 22.1525 27.9649 22.1225 28.0309C22.0925 28.0949 22.0515 28.1519 21.9995 28.2019C21.9475 28.2499 21.8865 28.2889 21.8165 28.3189C21.7485 28.3469 21.6755 28.3609 21.5975 28.3609C21.5215 28.3609 21.4505 28.3469 21.3845 28.3189C21.3185 28.2889 21.2595 28.2499 21.2075 28.2019C21.1575 28.1519 21.1175 28.0949 21.0875 28.0309C21.0595 27.9649 21.0455 27.8949 21.0455 27.8209C21.0455 27.7449 21.0595 27.6739 21.0875 27.6079C21.1175 27.5419 21.1575 27.4839 21.2075 27.4339C21.2595 27.3839 21.3185 27.3449 21.3845 27.3169C21.4505 27.2889 21.5215 27.2749 21.5975 27.2749C21.6755 27.2749 21.7485 27.2889 21.8165 27.3169C21.8865 27.3449 21.9475 27.3839 21.9995 27.4339C22.0515 27.4839 22.0925 27.5419 22.1225 27.6079C22.1525 27.6739 22.1675 27.7449 22.1675 27.8209ZM24.9584 31.7839C24.8704 31.7839 24.8034 31.7719 24.7574 31.7479C24.7134 31.7239 24.6764 31.6739 24.6464 31.5979L24.5804 31.4269C24.5024 31.4929 24.4274 31.5509 24.3554 31.6009C24.2834 31.6509 24.2084 31.6939 24.1304 31.7299C24.0544 31.7639 23.9724 31.7889 23.8844 31.8049C23.7984 31.8229 23.7024 31.8319 23.5964 31.8319C23.4544 31.8319 23.3254 31.8139 23.2094 31.7779C23.0934 31.7399 22.9944 31.6849 22.9124 31.6129C22.8324 31.5409 22.7704 31.4519 22.7264 31.3459C22.6824 31.2379 22.6604 31.1139 22.6604 30.9739C22.6604 30.8639 22.6884 30.7509 22.7444 30.6349C22.8004 30.5189 22.8974 30.4139 23.0354 30.3199C23.1734 30.2239 23.3594 30.1439 23.5934 30.0799C23.8274 30.0159 24.1224 29.9799 24.4784 29.9719V29.8399C24.4784 29.6579 24.4404 29.5269 24.3644 29.4469C24.2904 29.3649 24.1844 29.3239 24.0464 29.3239C23.9364 29.3239 23.8464 29.3359 23.7764 29.3599C23.7064 29.3839 23.6434 29.4109 23.5874 29.4409C23.5334 29.4709 23.4804 29.4979 23.4284 29.5219C23.3764 29.5459 23.3144 29.5579 23.2424 29.5579C23.1784 29.5579 23.1234 29.5429 23.0774 29.5129C23.0334 29.4809 22.9984 29.4419 22.9724 29.3959L22.8044 29.1049C22.9924 28.9389 23.2004 28.8159 23.4284 28.7359C23.6584 28.6539 23.9044 28.6129 24.1664 28.6129C24.3544 28.6129 24.5234 28.6439 24.6734 28.7059C24.8254 28.7659 24.9534 28.8509 25.0574 28.9609C25.1634 29.0689 25.2444 29.1979 25.3004 29.3479C25.3564 29.4979 25.3844 29.6619 25.3844 29.8399V31.7839H24.9584ZM23.8904 31.2169C24.0104 31.2169 24.1154 31.1959 24.2054 31.1539C24.2954 31.1119 24.3864 31.0439 24.4784 30.9499V30.5179C24.2924 30.5259 24.1394 30.5419 24.0194 30.5659C23.8994 30.5899 23.8044 30.6199 23.7344 30.6559C23.6644 30.6919 23.6154 30.7329 23.5874 30.7789C23.5614 30.8249 23.5484 30.8749 23.5484 30.9289C23.5484 31.0349 23.5774 31.1099 23.6354 31.1539C23.6934 31.1959 23.7784 31.2169 23.8904 31.2169ZM27.0048 27.2929V31.7839H26.0748V27.2929H27.0048Z" fill="#3868B0"/>
<circle cx="28.6599" cy="29.1602" r="27.5" stroke="#3868B0" stroke-width="2"/>
<path d="M38.159 15.7516C38.4032 16.2294 38.7169 16.8976 39.8329 17.1159C38.7169 17.1159 37.88 17.1159 37.322 16.2973C37.0988 15.8607 36.578 15.8426 36.206 15.7516V14.6602C36.578 14.6602 37.601 14.6602 38.159 15.7516Z" fill="#3868B0"/>
<path fill-rule="evenodd" clip-rule="evenodd" d="M36.206 14.6602L36.2061 20.9359H35.6481V14.6602H36.206Z" fill="#3868B0"/>
<path d="M36.1412 20.4844C36.4013 20.9885 35.9553 21.7215 35.1449 22.1215C34.3345 22.5216 33.4667 22.4373 33.2065 21.9332C32.9463 21.4291 33.3924 20.6961 34.2027 20.296C35.0131 19.8959 35.881 19.9803 36.1412 20.4844Z" fill="#3868B0"/>
<path d="M41.7329 24.3268C42.0057 24.8209 41.5894 25.5579 40.8032 25.973C40.017 26.3881 39.1586 26.3241 38.8859 25.83C38.6132 25.3359 39.0294 24.5989 39.8156 24.1838C40.6018 23.7687 41.4602 23.8328 41.7329 24.3268Z" fill="#3868B0"/>
<path d="M46.4482 21.556C46.7209 22.05 46.3046 22.787 45.5184 23.2021C44.7322 23.6172 43.8738 23.5532 43.6011 23.0591C43.3284 22.5651 43.7447 21.8281 44.5309 21.413C45.3171 20.9979 46.1755 21.0619 46.4482 21.556Z" fill="#3868B0"/>
<path fill-rule="evenodd" clip-rule="evenodd" d="M41.8106 17.8012V24.7621H41.2468L41.2468 17.8012H41.8106Z" fill="#3868B0"/>
<path fill-rule="evenodd" clip-rule="evenodd" d="M46.5278 14.9952V21.9561H45.964L45.964 14.9952L46.5278 14.9952Z" fill="#3868B0"/>
<path fill-rule="evenodd" clip-rule="evenodd" d="M41.2549 17.8012L45.9733 14.9952L46.2662 15.4663L41.5478 18.2724L41.2549 17.8012Z" fill="#3868B0"/>
<path d="M46.4464 14.8015V15.3H45.622L46.4464 14.8015Z" fill="#3868B0"/>
<path fill-rule="evenodd" clip-rule="evenodd" d="M46.5269 14.6602V15.3788H45.3386L46.5269 14.6602ZM45.9055 15.2212H46.3659V14.9428L45.9055 15.2212Z" fill="#3868B0"/>
<path fill-rule="evenodd" clip-rule="evenodd" d="M41.2549 19.2291L45.9733 16.423L46.2662 16.8942L41.5478 19.7002L41.2549 19.2291Z" fill="#3868B0"/>
<path d="M46.4464 16.2293V16.7278H45.622L46.4464 16.2293Z" fill="#3868B0"/>
<path fill-rule="evenodd" clip-rule="evenodd" d="M46.5269 16.088V16.8066H45.3386L46.5269 16.088ZM45.9055 16.6491H46.3659V16.3707L45.9055 16.6491Z" fill="#3868B0"/>
</svg>
