<?xml version="1.0" standalone="no"?>
<!DOCTYPE svg PUBLIC "-//W3C//DTD SVG 20010904//EN"
 "http://www.w3.org/TR/2001/REC-SVG-20010904/DTD/svg10.dtd">
<svg version="1.0" xmlns="http://www.w3.org/2000/svg"
 width="896.000000pt" height="896.000000pt" viewBox="0 0 896.000000 896.000000"
 preserveAspectRatio="xMidYMid meet">
<metadata>
Created by potrace 1.14, written by Peter Selinger 2001-2017
</metadata>
<g transform="translate(0.000000,896.000000) scale(0.100000,-0.100000)"
fill="#000000" stroke="none">
<path d="M5099 8956 c-2 -2 -40 -7 -84 -10 -87 -6 -242 -24 -290 -32 -16 -3
-43 -7 -60 -9 -50 -6 -135 -21 -163 -29 -9 -3 -35 -8 -57 -11 -44 -7 -70 -13
-70 -15 0 -1 -11 -4 -24 -6 -14 -2 -52 -12 -85 -20 -34 -9 -65 -17 -71 -18
-32 -8 -114 -32 -210 -64 -60 -20 -114 -37 -120 -38 -65 -14 -574 -243 -655
-294 -8 -6 -53 -32 -100 -58 -47 -27 -96 -55 -110 -63 -14 -8 -27 -16 -30 -19
-3 -3 -43 -30 -90 -60 -89 -58 -311 -221 -371 -274 -19 -17 -64 -56 -100 -86
-35 -30 -132 -122 -214 -205 -170 -170 -219 -224 -359 -400 -31 -38 -60 -75
-66 -82 -5 -7 -10 -15 -10 -18 0 -3 -7 -13 -16 -22 -31 -36 -84 -112 -84 -122
0 -6 -4 -11 -10 -11 -5 0 -10 -7 -10 -15 0 -8 -3 -15 -8 -15 -4 0 -16 -17 -27
-37 -11 -20 -24 -42 -30 -48 -11 -12 -9 -9 -106 -176 -60 -105 -209 -398 -209
-412 0 -3 -13 -34 -29 -69 -24 -53 -39 -91 -46 -118 -1 -3 -7 -18 -15 -35 -16
-38 -118 -345 -124 -376 -3 -13 -15 -60 -27 -104 -11 -44 -22 -87 -24 -95 -25
-112 -33 -156 -29 -162 3 -4 0 -8 -6 -8 -6 0 -9 -4 -6 -8 3 -4 1 -26 -4 -48
-5 -21 -12 -61 -16 -89 -3 -27 -8 -59 -10 -70 -2 -11 -6 -45 -9 -75 -3 -30 -8
-66 -10 -80 -26 -130 -26 -899 0 -940 2 -3 6 -38 9 -79 4 -41 8 -77 10 -80 2
-3 7 -28 10 -56 5 -46 9 -70 20 -127 7 -33 25 -130 30 -153 2 -11 9 -40 16
-65 7 -25 14 -54 16 -65 4 -25 82 -294 91 -315 3 -8 7 -19 8 -25 2 -5 13 -35
25 -65 12 -30 21 -55 20 -55 -8 0 101 -257 155 -367 14 -27 22 -48 18 -48 -3
0 -1 -6 5 -12 5 -7 30 -51 55 -98 80 -153 162 -289 260 -435 64 -94 212 -293
231 -310 6 -5 29 -32 51 -60 66 -84 104 -124 260 -280 147 -147 170 -169 290
-271 88 -74 273 -214 284 -214 5 0 11 -4 13 -9 4 -11 216 -151 229 -151 5 0 9
-4 9 -10 0 -5 4 -10 9 -10 5 0 55 -27 110 -60 56 -32 101 -56 101 -53 0 3 7 0
15 -7 46 -38 459 -225 565 -255 8 -2 53 -18 100 -36 47 -17 92 -32 100 -35 8
-2 78 -21 155 -43 121 -33 291 -73 375 -87 14 -2 41 -7 60 -10 19 -4 46 -8 60
-10 14 -1 39 -5 55 -8 17 -3 53 -8 80 -12 28 -3 66 -7 85 -10 223 -26 812 -25
980 1 14 2 52 7 84 10 56 5 88 9 146 20 14 2 45 7 70 10 25 3 52 8 60 10 8 2
29 6 45 9 17 3 46 8 65 12 19 3 44 8 55 9 11 2 20 4 20 5 0 2 19 6 79 18 28 6
55 17 61 25 5 8 42 24 80 37 39 13 108 36 155 52 47 16 92 31 100 33 25 5 104
37 115 47 5 4 15 8 23 8 8 0 25 9 39 20 14 11 29 18 33 15 4 -3 13 2 20 10 7
8 17 15 23 15 10 0 179 104 210 130 10 8 28 23 40 33 117 94 223 198 287 280
22 29 46 59 54 67 20 22 106 159 106 169 0 5 4 11 8 13 14 6 108 210 140 303
40 115 75 260 89 365 9 67 8 446 -1 516 -5 41 -33 163 -49 219 -2 6 -7 25 -11
43 -4 18 -14 45 -22 60 -8 15 -14 33 -14 41 0 26 -109 235 -167 323 -120 179
-279 342 -438 448 -27 19 -52 36 -55 39 -6 7 -50 31 -135 76 -104 54 -288 122
-375 139 -14 2 -32 7 -40 10 -15 5 -74 14 -145 23 -22 2 -118 6 -214 8 -186 3
-199 7 -206 56 -2 13 -6 34 -8 45 -3 12 -8 39 -11 60 -4 22 -11 68 -17 104 -6
36 -13 74 -14 85 -2 11 -6 34 -9 50 -4 17 -9 46 -12 65 -6 37 -11 68 -18 110
-3 14 -9 52 -15 85 -6 33 -12 71 -15 85 -7 40 -16 92 -21 125 -3 17 -8 46 -10
65 -3 19 -10 55 -15 80 -20 101 -25 148 -21 200 1 16 59 77 234 249 119 116
206 207 287 300 30 35 64 74 76 87 11 13 29 35 40 50 10 14 40 54 65 87 51 70
169 245 169 251 0 3 13 26 29 53 41 69 85 147 87 153 0 3 25 57 56 120 46 97
73 161 124 295 4 11 8 22 9 25 1 3 16 50 34 105 36 109 79 279 96 380 3 17 8
37 10 45 2 8 7 35 10 60 4 25 9 59 11 75 33 217 36 442 9 660 -2 17 -6 50 -9
74 -15 120 -48 322 -72 436 -4 22 -8 45 -9 50 0 6 -4 16 -8 23 -5 6 -5 12 -1
12 3 0 -1 11 -10 25 -9 14 -13 24 -9 23 4 -2 9 2 9 7 2 13 -83 77 -161 120
-53 30 -250 116 -265 116 -3 0 -36 9 -74 20 -38 11 -78 22 -88 24 -11 2 -27 6
-36 9 -9 3 -28 7 -42 10 -14 3 -36 7 -50 10 -48 11 -75 16 -110 21 -19 3 -46
7 -60 10 -14 3 -47 7 -75 11 -27 3 -61 7 -75 9 -41 7 -224 25 -310 31 -72 5
-807 14 -811 10z m578 -229 c23 -2 45 -5 48 -9 3 -3 -7 -34 -23 -69 -36 -82
-103 -268 -138 -384 -28 -95 -36 -128 -54 -210 -6 -27 -13 -57 -16 -67 -4 -15
-100 -16 -1262 -16 l-1257 -1 -3 -140 c-1 -78 -6 -142 -10 -142 -4 -1 -93 -2
-199 -3 -165 -1 -190 0 -180 13 29 34 376 301 392 301 3 0 11 5 18 11 18 16
136 91 203 130 32 19 66 39 76 44 20 13 188 100 248 130 243 120 685 273 920
319 14 2 57 11 95 19 39 9 88 18 110 21 22 4 51 8 65 11 132 21 189 27 355 40
50 4 91 8 92 9 3 2 473 -3 520 -7z m1173 -198 c142 -66 229 -205 257 -409 13
-90 6 -295 -12 -385 -36 -180 -84 -314 -168 -475 -168 -319 -425 -613 -956
-1095 -30 -27 -62 -58 -72 -67 -21 -20 -54 -38 -69 -38 -22 0 -36 51 -55 205
-34 264 -37 597 -10 870 32 318 131 655 260 885 51 90 59 104 73 118 6 7 17
23 24 35 30 58 154 189 239 253 164 125 354 165 489 103z m-1408 -719 c15 0
16 -7 12 -42 -4 -24 -10 -45 -14 -48 -5 -3 -525 -5 -1157 -5 l-1148 1 -3 46
-3 47 73 3 c55 2 2146 1 2240 -2z m-2481 -289 c4 0 7 -63 8 -138 1 -75 5 -139
10 -142 5 -4 552 -6 1216 -5 865 1 1208 -2 1210 -10 2 -6 6 -83 9 -171 4 -88
9 -205 12 -260 l5 -100 -1230 0 -1231 1 0 -133 c0 -73 -3 -134 -7 -134 -23 -4
-1369 -5 -1376 -1 -4 2 -3 10 4 18 6 8 8 14 5 14 -4 0 5 17 19 37 14 21 25 41
25 44 0 27 323 515 370 559 3 3 23 28 44 55 22 28 47 57 55 66 9 9 31 35 50
58 19 24 80 89 135 145 l101 103 280 -2 c154 -2 283 -3 286 -4z m2483 -991 c2
-3 7 -28 10 -55 l4 -50 -1161 0 c-639 0 -1164 3 -1167 6 -3 4 -4 29 -2 56 l4
49 1153 -1 c634 0 1156 -2 1159 -5z m-2476 -405 c1 -77 4 -145 6 -151 3 -8
364 -10 1263 -10 692 1 1265 -2 1274 -6 10 -4 16 -22 18 -53 2 -56 -2 -61
-213 -235 -184 -151 -194 -160 -232 -195 -18 -16 -60 -55 -94 -85 -35 -30 -99
-89 -143 -132 l-81 -76 -1803 0 c-992 -1 -1801 3 -1799 7 3 4 7 25 10 47 3 21
8 50 10 64 3 14 11 50 17 80 6 30 17 76 24 103 8 26 11 47 8 47 -3 0 -1 6 4
13 6 6 13 28 17 47 7 37 60 214 79 265 7 17 12 32 12 35 0 3 6 14 12 25 6 11
12 25 13 30 13 56 117 306 131 315 5 3 336 6 736 5 l728 0 3 -140z m1627
-1107 c2 -2 -35 -44 -83 -93 -48 -50 -130 -138 -182 -195 -52 -58 -99 -110
-105 -116 -5 -6 -23 -28 -40 -49 -16 -21 -39 -49 -50 -61 -11 -13 -31 -39 -45
-59 -14 -20 -32 -44 -40 -54 -8 -10 -40 -55 -70 -99 l-55 -81 -477 -1 -478 0
0 -135 c0 -101 -3 -135 -12 -136 -17 -1 -1765 -1 -1799 0 -23 1 -25 5 -28 45
-1 25 -4 55 -6 68 -18 87 -25 525 -11 703 18 242 19 255 33 263 11 7 3441 7
3448 0z m1162 -340 c12 -15 20 -47 28 -104 3 -21 9 -64 15 -94 5 -30 14 -84
20 -120 5 -36 13 -81 16 -100 3 -19 8 -48 10 -65 2 -16 6 -41 9 -55 3 -14 8
-45 10 -70 3 -25 8 -56 11 -70 3 -14 7 -38 10 -55 3 -16 9 -55 14 -85 25 -147
30 -209 19 -231 -8 -16 -41 -31 -219 -99 -87 -33 -225 -104 -248 -127 -7 -7
-17 -13 -22 -13 -5 0 -15 -6 -22 -12 -7 -7 -38 -32 -69 -55 -70 -52 -189 -171
-243 -243 -23 -30 -46 -61 -53 -68 -6 -6 -15 -21 -18 -32 -3 -11 -11 -20 -16
-20 -5 0 -9 -4 -9 -10 0 -5 -13 -31 -28 -57 -75 -130 -140 -315 -169 -483 -15
-92 -6 -471 13 -501 2 -4 6 -24 10 -45 3 -22 10 -47 15 -56 5 -10 7 -18 4 -18
-3 0 1 -16 9 -35 9 -20 15 -38 15 -40 -1 -29 79 -195 140 -290 23 -37 112
-145 153 -187 40 -41 173 -140 232 -173 69 -38 236 -109 301 -126 49 -14 145
-19 145 -7 0 4 6 8 14 8 7 0 19 14 26 30 17 40 0 81 -43 102 -18 8 -66 32
-107 52 -117 57 -122 60 -220 156 -118 115 -202 267 -224 404 -4 21 -9 42 -11
47 -8 12 -8 166 -1 229 7 55 22 122 33 150 3 8 7 21 9 29 6 32 85 167 122 211
44 51 138 140 148 140 7 0 14 4 16 9 8 22 228 141 261 141 7 0 17 4 22 8 13
11 155 51 178 49 24 -1 44 -32 52 -82 9 -65 15 -99 20 -125 3 -14 7 -41 10
-60 3 -19 7 -46 10 -60 6 -27 10 -55 19 -110 3 -19 8 -48 12 -65 6 -31 11 -58
18 -110 3 -16 7 -43 10 -60 3 -16 7 -46 10 -65 3 -19 8 -46 11 -60 3 -14 7
-41 10 -60 3 -19 7 -44 9 -55 5 -28 24 -144 31 -195 2 -14 6 -36 9 -50 3 -14
8 -38 11 -55 3 -16 7 -43 10 -60 3 -16 8 -46 11 -65 2 -19 9 -57 14 -85 5 -27
12 -66 14 -85 3 -19 8 -46 10 -60 10 -50 67 -396 70 -420 2 -14 6 -36 10 -50
3 -14 8 -41 10 -60 3 -19 8 -56 12 -81 8 -56 5 -58 -121 -75 -197 -26 -460
-35 -610 -20 -27 2 -72 6 -98 7 -26 2 -50 6 -53 11 -3 5 -9 6 -13 3 -5 -2 -35
0 -67 6 -32 5 -74 12 -91 14 -18 3 -68 14 -110 26 -43 11 -85 22 -94 24 -114
23 -502 194 -517 228 -2 4 -8 7 -14 7 -9 0 -96 56 -108 69 -3 3 -27 24 -55 46
-81 64 -173 155 -237 235 -33 41 -66 83 -74 93 -8 9 -14 21 -14 26 0 4 -9 19
-19 32 -45 57 -142 273 -167 369 -31 122 -34 141 -54 279 -7 56 -5 359 4 446
6 65 24 178 37 235 6 25 13 56 15 70 3 14 9 36 13 50 5 14 12 37 15 52 4 15
11 40 18 55 6 15 12 31 13 36 2 4 3 8 5 10 1 1 3 9 5 17 2 8 10 32 19 52 9 21
17 41 18 45 2 13 100 206 123 243 12 19 22 39 23 44 0 5 4 12 9 15 5 3 23 29
40 56 30 47 83 122 135 189 172 223 518 568 823 821 33 27 65 54 71 60 18 16
45 36 109 85 33 25 62 48 65 51 11 12 223 159 230 159 4 0 12 -6 17 -12z
m-1939 -635 c-26 -54 -43 -83 -50 -83 -5 0 -6 -4 -3 -10 4 -7 -56 -10 -172
-11 -98 -1 -182 0 -188 1 -5 1 -70 1 -142 1 l-133 -2 0 56 0 55 346 0 c190 0
344 -3 342 -7z m-848 -291 c-1 -15 -2 -83 -1 -152 l1 -125 278 1 c152 0 282
-2 288 -4 8 -2 2 -34 -18 -95 -17 -51 -32 -101 -35 -112 -9 -40 -12 -50 -13
-50 -1 0 -3 -8 -5 -17 -2 -9 -8 -40 -15 -70 -7 -29 -13 -62 -15 -73 -2 -11 -6
-36 -10 -55 -4 -19 -8 -41 -8 -47 0 -7 -3 -14 -6 -14 -3 -1 -100 -3 -216 -4
-115 -2 -213 -4 -217 -4 -4 -1 -9 -54 -10 -118 l-3 -118 -725 -1 c-399 0 -732
2 -740 4 -36 8 -220 523 -277 772 -8 36 -17 74 -19 85 -14 62 -31 147 -37 192
l-5 32 905 0 904 0 -1 -27z m418 -1017 l-3 -40 -127 0 -128 -1 0 37 c0 19 2
38 4 40 2 2 61 4 131 4 l126 0 -3 -40z m3102 -10 c8 -2 35 -7 60 -10 111 -15
290 -77 360 -126 14 -9 27 -16 30 -16 18 4 184 -126 247 -193 69 -74 83 -92
134 -167 96 -141 168 -334 186 -498 11 -104 4 -286 -13 -347 -3 -10 -7 -30
-10 -45 -7 -40 -53 -164 -70 -190 -8 -13 -12 -23 -8 -23 11 0 -95 -167 -136
-214 -79 -91 -249 -236 -278 -236 -5 0 -12 -4 -14 -8 -5 -13 -138 -73 -174
-79 -29 -5 -33 -2 -43 29 -13 40 -17 56 -27 125 -8 61 -12 80 -18 101 -3 9 -7
39 -11 66 -3 27 -8 52 -9 55 -3 5 -11 54 -21 128 -2 12 -6 36 -11 55 -4 18 -8
42 -10 53 -4 30 -14 88 -19 105 -2 8 -7 35 -10 60 -3 25 -8 52 -10 60 -2 8 -7
35 -10 60 -3 25 -8 52 -10 60 -2 8 -7 31 -10 50 -3 19 -8 49 -11 65 -3 17 -7
41 -9 55 -2 14 -6 36 -9 50 -5 24 -31 171 -42 235 -3 17 -7 39 -8 50 -2 20
-15 91 -22 130 -5 23 -8 39 -28 160 -9 50 -18 100 -20 111 -2 12 -7 37 -10 55
-3 19 -8 45 -10 59 -23 125 -25 151 -14 173 8 16 33 17 88 2z m-3527 -194 c5
0 8 -20 7 -43 -1 -24 -1 -98 -1 -166 1 -94 4 -123 14 -119 6 2 22 0 35 -4 13
-5 22 -5 22 1 0 6 9 6 23 1 12 -5 30 -6 39 -2 9 3 54 4 99 1 44 -3 83 -2 85 1
2 4 16 4 31 2 16 -2 42 -4 60 -3 24 0 32 -4 32 -17 0 -19 5 -52 15 -100 3 -15
8 -42 11 -59 7 -46 51 -211 74 -279 11 -33 21 -62 21 -65 0 -3 -125 -6 -277
-6 l-278 0 -3 -112 -3 -112 -305 0 -305 0 -42 43 c-231 236 -438 507 -614 802
-94 158 -133 233 -123 237 9 3 1362 2 1383 -1z m644 -1036 c27 -45 27 -45
-232 -45 l-245 0 0 33 0 32 232 0 c222 0 234 -1 245 -20z m-690 -205 l51 0 1
-170 c0 -158 -1 -169 -18 -161 -20 11 -254 186 -295 222 -16 13 -45 39 -65 56
-20 18 -39 33 -43 33 -5 0 -8 4 -8 9 0 13 50 16 200 14 69 -1 148 -2 177 -3z
m453 -349 c338 1 355 1 365 -1 6 -1 15 -2 20 -1 6 1 54 2 108 2 111 0 94 9
206 -102 82 -81 211 -185 305 -247 39 -26 73 -49 76 -52 17 -17 222 -121 320
-162 77 -33 253 -95 290 -103 8 -2 42 -11 75 -20 33 -9 74 -19 90 -22 17 -3
37 -7 45 -8 8 -2 21 -4 28 -4 6 -1 12 -5 12 -10 0 -5 -8 -8 -17 -6 -10 2 -65
6 -123 9 -146 7 -257 15 -294 22 -17 3 -49 7 -71 9 -38 4 -141 20 -195 31 -14
3 -47 9 -75 14 -84 16 -108 21 -115 25 -4 2 -22 7 -40 10 -73 13 -278 73 -420
123 -307 108 -654 277 -889 433 -41 27 -79 49 -85 50 -6 1 -1 4 12 7 13 4 55
6 95 5 40 -2 164 -3 277 -2z"/>
</g>
</svg>
